<svg width="25" height="25" viewBox="0 0 25 25" fill="none" xmlns="http://www.w3.org/2000/svg">
<path d="M7.50509 16.4606H21.2801C22.8421 16.4606 24.1163 15.1864 24.1163 13.6244V7.82874C24.1163 7.82361 24.1163 7.81333 24.1163 7.80819C24.1163 7.79278 24.1163 7.7825 24.1163 7.76709C24.1163 7.75681 24.1163 7.74654 24.1112 7.73626C24.1112 7.72598 24.106 7.71057 24.106 7.70029C24.106 7.69002 24.1009 7.67974 24.1009 7.66947C24.0957 7.65919 24.0957 7.64891 24.0906 7.6335C24.0855 7.62322 24.0855 7.61295 24.0803 7.60267C24.0752 7.5924 24.0752 7.58212 24.0701 7.57184C24.0649 7.56157 24.0598 7.55129 24.0546 7.53588C24.0495 7.5256 24.0444 7.51533 24.0392 7.51019C24.0341 7.49991 24.0289 7.48964 24.0238 7.47936C24.0187 7.46908 24.0135 7.46395 24.0084 7.45367C24.0033 7.44339 23.993 7.43312 23.9878 7.42284C23.9827 7.41257 23.9776 7.40743 23.9673 7.39715C23.9622 7.38688 23.9519 7.38174 23.9467 7.37146C23.9416 7.36119 23.9313 7.35605 23.9262 7.34577C23.9211 7.33549 23.9108 7.33036 23.9056 7.32522C23.8954 7.31494 23.8902 7.30981 23.8799 7.29953C23.8697 7.29439 23.8645 7.28412 23.8543 7.27898C23.844 7.27384 23.8337 7.26356 23.8234 7.25842C23.8132 7.25329 23.808 7.24815 23.7977 7.24301C23.7875 7.23787 23.7772 7.23274 23.7669 7.22246C23.7566 7.21732 23.7464 7.21218 23.7361 7.20704C23.7258 7.20191 23.7155 7.19677 23.7053 7.19163C23.695 7.18649 23.6847 7.18135 23.6744 7.17622C23.6642 7.17108 23.6539 7.17108 23.6436 7.16594C23.6333 7.1608 23.6179 7.15566 23.6076 7.15566C23.5974 7.15566 23.5871 7.15053 23.5819 7.15053C23.5665 7.14539 23.5563 7.14539 23.5408 7.14539C23.5357 7.14539 23.5306 7.14025 23.5203 7.14025L6.0613 4.73052V2.2951C6.0613 2.26941 6.0613 2.24372 6.05617 2.22317C6.05617 2.21803 6.05617 2.21289 6.05103 2.20262C6.05103 2.1872 6.04589 2.17179 6.04589 2.15637C6.04075 2.14096 6.04075 2.13068 6.03561 2.11527C6.03561 2.10499 6.03048 2.09985 6.03048 2.08958C6.02534 2.07416 6.0202 2.05875 6.01506 2.04334C6.01506 2.0382 6.00992 2.02792 6.00992 2.02278C6.00479 2.00737 5.99965 1.99709 5.98937 1.98168C5.98423 1.97654 5.98423 1.96627 5.9791 1.96113C5.97396 1.95085 5.96882 1.94058 5.95854 1.9303C5.95341 1.92002 5.94827 1.91489 5.94313 1.90461C5.93799 1.89433 5.93285 1.8892 5.92772 1.87892C5.92258 1.86864 5.9123 1.85837 5.90716 1.84809C5.90203 1.84295 5.89689 1.83782 5.89175 1.83268C5.88147 1.8224 5.8712 1.81213 5.86092 1.80185C5.85578 1.79671 5.85065 1.79157 5.84551 1.78644C5.83523 1.77616 5.82496 1.76588 5.80954 1.75561C5.8044 1.75047 5.79413 1.74533 5.78899 1.74019C5.77871 1.72992 5.76844 1.72478 5.75816 1.7145C5.74275 1.70423 5.72733 1.69395 5.71706 1.68881C5.71192 1.68368 5.70678 1.68368 5.70164 1.67854C5.68109 1.66826 5.6554 1.65799 5.63485 1.64771L1.84813 0.054924C1.49361 -0.0940785 1.0877 0.0703381 0.938702 0.424861C0.789699 0.779384 0.954116 1.18529 1.30864 1.33429L4.6689 2.75238V5.89685V6.39524V10.2179V13.6347V17.9506C4.6689 19.3893 5.74789 20.5813 7.14029 20.7611C6.88853 21.1825 6.73952 21.6757 6.73952 22.1998C6.73952 23.7463 7.99834 25 9.53974 25C11.0811 25 12.34 23.7412 12.34 22.1998C12.34 21.686 12.2012 21.1979 11.9546 20.7868H18.1922C17.9455 21.203 17.8068 21.686 17.8068 22.1998C17.8068 23.7463 19.0656 25 20.607 25C22.1484 25 23.4072 23.7412 23.4072 22.1998C23.4072 20.6584 22.1484 19.3996 20.607 19.3996H7.50509C6.70356 19.3996 6.05617 18.747 6.05617 17.9506V16.0701C6.47748 16.3168 6.97587 16.4606 7.50509 16.4606ZM10.9578 22.1946C10.9578 22.9756 10.3207 23.6076 9.54488 23.6076C8.76904 23.6076 8.13192 22.9705 8.13192 22.1946C8.13192 21.4188 8.76904 20.7817 9.54488 20.7817C10.3207 20.7817 10.9578 21.4137 10.9578 22.1946ZM22.0251 22.1946C22.0251 22.9756 21.388 23.6076 20.6122 23.6076C19.8363 23.6076 19.1992 22.9705 19.1992 22.1946C19.1992 21.4188 19.8363 20.7817 20.6122 20.7817C21.388 20.7817 22.0251 21.4137 22.0251 22.1946ZM21.2801 15.0733H7.50509C6.70356 15.0733 6.05617 14.4208 6.05617 13.6244V10.2076V6.38496V6.12806L22.729 8.42476V13.6193C22.729 14.426 22.0765 15.0733 21.2801 15.0733Z" fill="#F9C722"/>
</svg>
