<svg id="Calque_1" data-name="Calque 1" xmlns="http://www.w3.org/2000/svg" viewBox="0 0 238 148"><defs><style>.cls-1{fill:#fff;}</style></defs><path class="cls-1" d="M27.3,81.88A7.26,7.26,0,0,0,20,89.23a6.64,6.64,0,0,0,2.13,5.06,6.94,6.94,0,0,0,5.17,2,7.29,7.29,0,0,0,5.28-2,6.67,6.67,0,0,0,2.12-5.06,7.27,7.27,0,0,0-2.12-5.34A7.55,7.55,0,0,0,27.3,81.88Z"/><path class="cls-1" d="M83.47,94.85c-.49-.87-1-1.74-1.58-2.55A11.56,11.56,0,0,0,79.6,90c-3.21-2.45-7.84-3.65-13.77-3.65h-9a16,16,0,0,1-7.18-1.3c-1.69-.87-2.51-2-2.51-3.49,0-2.28,1.64-3.86,4.9-4.79a29.73,29.73,0,0,0,7,.71c6.09,0,11.16-1.41,15.13-4.19s6-6.86,6-12.14a17.5,17.5,0,0,0-5.39-12.08L82,40.81,71.38,36.23l-.92,10A25.33,25.33,0,0,0,58.7,43.69c-6,0-10.88,1.47-14.75,4.41s-5.82,7.13-5.82,12.52A15,15,0,0,0,41.5,70.69a18.23,18.23,0,0,0,9.09,5.6,19.48,19.48,0,0,0-8.71,4.41,9.58,9.58,0,0,0-3.15,7.13,9,9,0,0,0,2.55,6.48,14,14,0,0,0,7.24,3.76q-5.88,1.14-9,3.91a8.3,8.3,0,0,0-3,6.48c0,3.7,2.13,6.53,6.37,8.55a34.4,34.4,0,0,0,14.86,3q11.27,0,19-5.23c5.17-3.48,7.73-8.21,7.73-14.2a18.5,18.5,0,0,0-.28-3A23.89,23.89,0,0,0,83.47,94.85ZM59.14,45.25c5.33,0,8,5.12,8,15.29s-2.67,15.3-8,15.3-8-5.12-8-15.3S53.8,45.25,59.14,45.25Zm12.24,70a20,20,0,0,1-10.88,2.89,20.85,20.85,0,0,1-11.32-3,9.65,9.65,0,0,1-4.79-8.6c0-3.7,1.74-6.37,5.33-8.11l2.61.22L64.42,99c7.67.28,11.53,3,11.53,8.22a9.2,9.2,0,0,1-4.57,8Z"/><path class="cls-1" d="M116.45,45.68l-1.36-1.25c-3.87.06-5.72.82-8.27,3.87a22.16,22.16,0,0,0-5,10.88V44.73H81v.21l6.29,5.23a2.89,2.89,0,0,1,1.06,2.39V88.75a3.74,3.74,0,0,1-.62,2.5l-3.28,4.3h.64l29,.16v-.16l-10.77-5.23a2.58,2.58,0,0,1-1.47-2.39V60.33l1.79-4.2a18.82,18.82,0,0,1,2.07-2.88A8.16,8.16,0,0,1,109,50.69a1.09,1.09,0,0,1,1.36.33l6.54,10.85h.21l4.14-12Z"/><path class="cls-1" d="M140.68,56.25a18.82,18.82,0,0,1,2.07-2.88,8.22,8.22,0,0,1,3.34-2.56,1.13,1.13,0,0,1,1.37.33l5.08,8.26a27,27,0,0,1,5-9.51l1.48-1.63,2-2a12.72,12.72,0,0,0-17.16,2.28,25.2,25.2,0,0,0-5.3,10.87V44.73H118.34v.05L124.63,50a2.89,2.89,0,0,1,1.06,2.39V88.54a2.67,2.67,0,0,1-1.06,2.28l-6.29,4.51v.22h32.45v-.22L140,90.11a2.58,2.58,0,0,1-1.47-2.39V60.38C139.64,58.32,140.35,57,140.68,56.25Z"/><path class="cls-1" d="M202.05,90.16a2.86,2.86,0,0,1-1.05-2.4V20l-20.21,2.38v.15l6.29,4.56a3,3,0,0,1,1.06,2.45V52.43s-7.52-8.7-13.78-8.76A18.74,18.74,0,0,0,159.28,51c-4,4.9-6,11.32-6,19.32s1.8,14.21,5.39,18.94a16.78,16.78,0,0,0,14,7.08c7.13,0,12.2-3.7,14.86-11V95.55h20.82v-.17Zm-16.41-5.78C182.92,88.14,180,90,176.82,90c-3.37,0-6.2-1.69-8.38-5.12s-3.27-8.54-3.27-15.51,1.15-12.19,3.38-15.62,5.11-5.12,8.6-5.12,6.26,1.58,8.54,4.79Z"/></svg>