<svg width="30" height="30" viewBox="0 0 30 30" fill="none" xmlns="http://www.w3.org/2000/svg">
<g clip-path="url(#clip0)">
<path d="M26.204 4.65066H23.6738V2.27141C23.6739 1.52359 23.0232 0.911804 22.2284 0.911804H3.79437C2.9992 0.911804 2.34863 1.52359 2.34863 2.27141V24.0249C2.34863 24.7727 2.9992 25.3845 3.79443 25.3845H6.32456V27.7638C6.32456 28.5116 6.97484 29.1234 7.77036 29.1234H20.0591C20.854 29.1234 21.9788 28.704 22.5575 28.1918L26.5963 24.6167C27.1756 24.1045 27.6491 23.0732 27.6491 22.3255L27.6498 6.01038C27.6498 5.2625 26.9992 4.65066 26.204 4.65066ZM6.32445 6.01033V24.3648H3.79437C3.59849 24.3648 3.43297 24.2092 3.43297 24.0249V2.27141C3.43297 2.08721 3.59849 1.93155 3.79437 1.93155H22.2285C22.424 1.93155 22.5899 2.08721 22.5899 2.27141V4.65072H7.77024C6.97472 4.65072 6.32445 5.2625 6.32445 6.01033ZM25.8531 23.8743L21.8143 27.4491C21.7315 27.5222 21.6238 27.5939 21.5048 27.6621V24.5347C21.5048 24.3012 21.605 24.0911 21.7701 23.9348C21.9368 23.7795 22.1601 23.685 22.4085 23.685H26.0247C25.9687 23.7567 25.9112 23.8226 25.8531 23.8743ZM26.5647 22.3254C26.5647 22.4263 26.5451 22.5432 26.5155 22.6652H22.4084C21.3115 22.6673 20.4227 23.5031 20.4204 24.5347V28.0625C20.2914 28.087 20.1671 28.1036 20.059 28.1036H7.77024V28.1036C7.57396 28.1036 7.40884 27.948 7.40884 27.7638V6.01027C7.40884 5.82607 7.57401 5.67041 7.77024 5.67041H26.2039C26.3998 5.67041 26.5653 5.82607 26.5653 6.01027L26.5647 22.3254Z" fill="#F9C722"/>
<path d="M22.2291 9.40921H11.7472C11.4476 9.40921 11.2051 9.63727 11.2051 9.91906C11.2051 10.2008 11.4477 10.4289 11.7472 10.4289H22.2291C22.5284 10.4289 22.7713 10.2008 22.7713 9.91906C22.7713 9.63727 22.5284 9.40921 22.2291 9.40921Z" fill="#F9C722"/>
<path d="M22.2291 16.2073H11.7472C11.4476 16.2073 11.2051 16.4353 11.2051 16.7171C11.2051 16.9989 11.4477 17.227 11.7472 17.227H22.2291C22.5284 17.227 22.7713 16.9989 22.7713 16.7171C22.7713 16.4353 22.5284 16.2073 22.2291 16.2073Z" fill="#F9C722"/>
<path d="M17.5308 19.6062H11.7477C11.4481 19.6062 11.2056 19.8343 11.2056 20.1161C11.2056 20.3979 11.4481 20.6259 11.7477 20.6259H17.5308C17.8301 20.6259 18.0726 20.3979 18.0726 20.1161C18.0726 19.8343 17.8301 19.6062 17.5308 19.6062Z" fill="#F9C722"/>
<path d="M22.2291 12.8082H11.7472C11.4476 12.8082 11.2051 13.0363 11.2051 13.318C11.2051 13.5998 11.4477 13.8279 11.7472 13.8279H22.2291C22.5284 13.8279 22.7713 13.5998 22.7713 13.318C22.7713 13.0363 22.5284 12.8082 22.2291 12.8082Z" fill="#F9C722"/>
</g>
<defs>
<clipPath id="clip0">
<rect width="30" height="28.2116" fill="white" transform="translate(0 0.911804)"/>
</clipPath>
</defs>
</svg>
