<svg width="25" height="25" viewBox="0 0 25 25" fill="none" xmlns="http://www.w3.org/2000/svg">
<path d="M7.37305 20.5566C7.37305 19.7127 7.01387 18.9514 6.44092 18.4164L6.44121 18.4123C6.49312 17.6952 6.53516 16.9393 6.56709 16.1592C8.06675 16.4417 9.12939 17.0104 9.73096 17.8549C10.5066 18.9439 10.3 20.2229 10.2183 20.5889C9.94561 21.8091 10.6682 23.0453 11.8923 23.2805C12.5999 23.4164 13.3059 23.4842 14.0073 23.4842C16.4663 23.4842 18.9323 22.6438 20.968 20.9624C23.5295 18.8466 24.9991 15.7623 25 12.5002C25.0017 6.31753 19.6245 1.27344 14.0089 1.47505C10.9408 1.58525 8.1835 3.09668 6.28237 4.76035C6.25806 4.53364 6.23262 4.31289 6.20601 4.09883C6.06655 2.97666 5.90181 2.08711 5.71636 1.45483C5.58872 1.01948 5.2897 0 4.44336 0C3.59702 0 3.298 1.01948 3.17036 1.45483C2.98491 2.08711 2.82021 2.97666 2.68071 4.09883C2.40044 6.35396 2.24609 9.33755 2.24609 12.5C2.24609 14.5661 2.31504 16.6105 2.44551 18.4123L2.4458 18.4164C1.87285 18.9514 1.51367 19.7127 1.51367 20.5566V22.0703C1.51367 22.8644 0.820508 23.5352 0 23.5352V25H2.97852C5.39795 25 7.37305 22.9948 7.37305 20.5566V20.5566ZM14.0615 2.93896C18.7808 2.76963 23.5367 7.07817 23.5352 12.4998C23.5344 15.3236 22.2587 17.9964 20.0352 19.833C17.8378 21.6479 14.9705 22.3801 12.1687 21.8419C11.7609 21.7636 11.5558 21.3203 11.6479 20.9083C11.7955 20.2476 12.0206 18.5444 10.9241 17.0051C10.0639 15.7973 8.61587 15.0168 6.61475 14.6799C6.63174 13.9625 6.64048 12.4454 6.64048 12.4181C6.92588 12.7506 7.30391 12.99 7.73638 13.1059C8.90928 13.4202 10.1146 12.7198 10.4275 11.5522C10.7411 10.3819 10.044 9.17471 8.87378 8.86113C7.99487 8.62563 7.11743 8.95737 6.59614 9.60156C6.56357 8.56108 6.51343 7.56304 6.44702 6.63013C8.10439 4.8791 10.9065 3.05229 14.0615 2.93896V2.93896ZM7.59766 10.7939C7.70244 10.4029 8.10361 10.1712 8.49468 10.276C8.88477 10.3805 9.11714 10.7829 9.0126 11.173C8.90806 11.5631 8.50547 11.7955 8.11553 11.6909C7.72456 11.5862 7.49287 11.185 7.59766 10.7939V10.7939ZM4.06221 4.90439C4.18872 3.72549 4.32407 2.92642 4.44336 2.38857C4.56265 2.92642 4.698 3.72549 4.82451 4.90439C5.05103 7.01528 5.17578 9.71279 5.17578 12.5C5.17578 12.7446 5.17476 12.9889 5.1728 13.2324H3.71392C3.71196 12.9889 3.71094 12.7446 3.71094 12.5C3.71094 9.71279 3.83569 7.01528 4.06221 4.90439V4.90439ZM3.73755 14.6968H5.14917C5.12407 15.7311 5.08135 16.737 5.02202 17.6846C4.83486 17.647 4.64141 17.627 4.44336 17.627C4.24531 17.627 4.05186 17.647 3.8647 17.6846C3.80542 16.737 3.7627 15.7312 3.73755 14.6968ZM2.97852 22.0703V20.5566C2.97852 19.7489 3.63564 19.0918 4.44336 19.0918C5.25107 19.0918 5.9082 19.7489 5.9082 20.5566C5.9082 22.199 4.59395 23.5352 2.97852 23.5352H2.57539C2.83838 23.0937 2.97852 22.5921 2.97852 22.0703Z" fill="#F9C722"/>
<path d="M19.6617 9.91051C20.5204 9.05187 20.5206 7.66193 19.6617 6.80309C18.805 5.9464 17.411 5.94635 16.5542 6.80309C15.6956 7.66173 15.6954 9.05167 16.5542 9.91051C17.4109 10.7672 18.8049 10.7672 19.6617 9.91051V9.91051ZM17.59 7.83893C17.8756 7.55338 18.3402 7.55333 18.6259 7.83893C18.9122 8.12521 18.9122 8.58844 18.6259 8.87472C18.3402 9.16032 17.8756 9.16027 17.59 8.87472C17.3038 8.58844 17.3038 8.12516 17.59 7.83893Z" fill="#F9C722"/>
<path d="M13.0172 8.9627C14.1874 8.64912 14.8845 7.4419 14.5709 6.27163C14.2572 5.10137 13.05 4.40435 11.8798 4.71792C10.7095 5.0315 10.0125 6.23872 10.3261 7.40903C10.6404 8.58198 11.844 9.277 13.0172 8.9627V8.9627ZM12.259 6.13281C12.6499 6.02808 13.0517 6.26153 13.156 6.65069C13.2606 7.04077 13.0282 7.44321 12.6381 7.54771C12.2471 7.65244 11.8459 7.4209 11.7411 7.02984C11.6365 6.63975 11.8688 6.23736 12.259 6.13281V6.13281Z" fill="#F9C722"/>
<path d="M13.3593 18.7285C13.6725 19.897 14.8784 20.5962 16.0505 20.2821C17.2207 19.9686 17.9177 18.7613 17.6041 17.5911C17.2898 16.4183 16.0864 15.723 14.913 16.0374C13.7427 16.3509 13.0457 17.5582 13.3593 18.7285V18.7285ZM15.2922 17.4522C15.6839 17.3473 16.0847 17.5799 16.1892 17.9701C16.2937 18.3603 16.0614 18.7626 15.6713 18.8672C15.2812 18.9717 14.8788 18.7393 14.7743 18.3493C14.6697 17.9592 14.9021 17.5568 15.2922 17.4522Z" fill="#F9C722"/>
<path d="M17.5019 13.4478C17.1883 14.6182 17.8853 15.8253 19.0556 16.139C20.2277 16.453 21.4321 15.7592 21.7467 14.5852C22.0609 13.4123 21.3661 12.2085 20.193 11.8942C19.0201 11.5797 17.8163 12.2747 17.5019 13.4478ZM20.3317 14.2061C20.2271 14.597 19.8258 14.8288 19.4347 14.724C19.0446 14.6195 18.8123 14.2171 18.9169 13.8269C19.0214 13.4368 19.422 13.2041 19.8138 13.3091C20.2039 13.4136 20.4363 13.816 20.3317 14.2061Z" fill="#F9C722"/>
</svg>
