<svg width="25" height="25" viewBox="0 0 25 25" fill="none" xmlns="http://www.w3.org/2000/svg">
<g clip-path="url(#clip0)">
<path d="M6.77354 3.12558C6.4854 3.12558 6.25098 3.36 6.25098 3.64814C6.25098 3.93628 6.4854 4.17071 6.77354 4.17071C7.06168 4.17071 7.2961 3.93628 7.2961 3.64814C7.2961 3.36 7.06168 3.12558 6.77354 3.12558Z" fill="#F9C722"/>
<path d="M4.68858 3.12558C4.40044 3.12558 4.16602 3.36 4.16602 3.64814C4.16602 3.93628 4.40044 4.17071 4.68858 4.17071C4.97672 4.17071 5.21114 3.93628 5.21114 3.64814C5.21114 3.36 4.97672 3.12558 4.68858 3.12558Z" fill="#F9C722"/>
<path d="M2.60264 3.12558C2.3145 3.12558 2.08008 3.36 2.08008 3.64814C2.08008 3.93628 2.3145 4.17071 2.60264 4.17071C2.89078 4.17071 3.1252 3.93628 3.1252 3.64814C3.1252 3.36 2.89078 3.12558 2.60264 3.12558Z" fill="#F9C722"/>
<path d="M17.7133 11.4573C16.5607 11.4573 15.6279 12.395 15.6279 13.5427V14.5829C15.6279 15.7355 16.5607 16.6683 17.7133 16.6683C18.861 16.6683 19.7987 15.7355 19.7987 14.5829V13.5427C19.7987 12.395 18.8659 11.4573 17.7133 11.4573ZM18.7487 14.5829C18.7487 15.1592 18.2798 15.6232 17.7084 15.6232C17.1321 15.6232 16.6682 15.1543 16.6682 14.5829V13.5427C16.6682 12.9664 17.137 12.5024 17.7084 12.5024C18.2847 12.5024 18.7487 12.9713 18.7487 13.5427V14.5829Z" fill="#F9C722"/>
<path d="M22.4018 1.04022H2.60305C1.16722 1.04022 0 2.20744 0 3.64327V21.3567C0 22.7925 1.16722 23.9597 2.60305 23.9597H22.397C23.8328 23.9597 25 22.7925 25 21.3567V3.64815C25.0049 2.21233 23.8377 1.04022 22.4018 1.04022ZM1.04024 3.64815C1.04024 2.78861 1.7435 2.08535 2.60305 2.08535H22.397C23.2565 2.08535 23.9598 2.78861 23.9598 3.64815V5.21096H1.04024V3.64815ZM22.4018 22.9195H2.60305C1.7435 22.9195 1.04024 22.2162 1.04024 21.3567V6.2512H23.9598V21.3567H23.9646C23.9646 22.2162 23.2614 22.9195 22.4018 22.9195Z" fill="#F9C722"/>
<path d="M8.33614 12.5024C8.9515 12.5024 9.35685 12.7955 9.38127 13.0055C9.41057 13.2887 9.65476 13.5085 9.94779 13.4743C10.2359 13.445 10.4459 13.191 10.4166 12.9078C10.3385 12.0824 9.44476 11.4622 8.33614 11.4622C7.16892 11.4622 6.25078 12.1508 6.25078 13.025C6.25078 13.8357 6.89543 14.3583 8.17498 14.5634L8.33126 14.5878C9.19569 14.7294 9.37639 14.9492 9.37639 15.1055C9.37639 15.3106 8.96127 15.628 8.33126 15.628C7.71591 15.628 7.31055 15.335 7.28613 15.125C7.25683 14.8418 7.00776 14.622 6.71962 14.6562C6.43148 14.6855 6.22147 14.9394 6.25078 15.2227C6.32892 16.048 7.22265 16.6683 8.33126 16.6683C9.49848 16.6683 10.4166 15.9797 10.4166 15.1055C10.4166 14.2899 9.77197 13.7722 8.49731 13.5622L8.34103 13.5378C7.42776 13.3864 7.29102 13.152 7.29102 13.025C7.29102 12.8199 7.70614 12.5024 8.33614 12.5024Z" fill="#F9C722"/>
<path d="M14.5875 12.5024C14.8757 12.5024 15.1101 12.268 15.1101 11.9799C15.1101 11.6917 14.8757 11.4573 14.5875 11.4573H11.9845C11.6963 11.4573 11.4619 11.6917 11.4619 11.9799V16.1457C11.4619 16.4388 11.6915 16.6683 11.9796 16.6683H14.5826C14.8708 16.6683 15.1052 16.4339 15.1052 16.1457C15.1052 15.8576 14.8708 15.6232 14.5826 15.6232H12.5022V14.5829H14.065C14.3531 14.5829 14.5875 14.3485 14.5875 14.0604C14.5875 13.7722 14.3531 13.5378 14.065 13.5378H12.5022V12.5024H14.5875Z" fill="#F9C722"/>
</g>
<defs>
<clipPath id="clip0">
<rect width="25" height="25" fill="white"/>
</clipPath>
</defs>
</svg>
