<?xml version="1.0" encoding="utf-8"?>
<!-- Generator: Adobe Illustrator 25.2.1, SVG Export Plug-In . SVG Version: 6.00 Build 0)  -->
<svg version="1.1" id="Capa_1" xmlns="http://www.w3.org/2000/svg" xmlns:xlink="http://www.w3.org/1999/xlink" x="0px" y="0px"
	 viewBox="0 0 512 512" style="enable-background:new 0 0 512 512;" xml:space="preserve">
<style type="text/css">
	.st0{fill:#F9C722;}
</style>
<g>
	<path class="st0" d="M497,422H373.4c23.1-21,37.6-51.4,37.6-85v-5h26c41.4,0,75-33.6,75-75s-33.6-75-75-75h-26v-25
		c0-8.3-6.7-15-15-15H116c-8.3,0-15,6.7-15,15v180c0,33.6,14.5,64,37.6,85H15c-8.3,0-15,6.7-15,15c0,41.4,33.6,75,75,75h362
		c41.4,0,75-33.6,75-75C512,428.7,505.3,422,497,422z M411,212h26c24.8,0,45,20.2,45,45s-20.2,45-45,45h-26V212z M131,172h250v40
		H131V172z M131,337v-95h250v95c0,46.9-38.1,85-85,85h-80C169.1,422,131,383.9,131,337z M437,482H75c-19.6,0-36.2-12.5-42.4-30
		h446.9C473.2,469.5,456.6,482,437,482z"/>
	<path class="st0" d="M286,110c8.3,0,15-6.7,15-15v-5c0-5.5,4.5-10,10-10c22.1,0,40-17.9,40-40S333.1,0,311,0h-25
		c-8.3,0-15,6.7-15,15s6.7,15,15,15h25c5.5,0,10,4.5,10,10s-4.5,10-10,10c-22.1,0-40,17.9-40,40v5C271,103.3,277.7,110,286,110z"/>
	<path class="st0" d="M176,110c8.3,0,15-6.7,15-15v-5c0-5.5,4.5-10,10-10c22.1,0,40-17.9,40-40S223.1,0,201,0h-25
		c-8.3,0-15,6.7-15,15s6.7,15,15,15h25c5.5,0,10,4.5,10,10s-4.5,10-10,10c-22.1,0-40,17.9-40,40v5C161,103.3,167.7,110,176,110z"/>
</g>
</svg>
