<?xml version="1.0" encoding="utf-8"?>
<!-- Generator: Adobe Illustrator 25.2.1, SVG Export Plug-In . SVG Version: 6.00 Build 0)  -->
<svg version="1.1" id="Capa_1" xmlns="http://www.w3.org/2000/svg" xmlns:xlink="http://www.w3.org/1999/xlink" x="0px" y="0px"
	 viewBox="0 0 252.6 252.6" style="enable-background:new 0 0 252.6 252.6;" xml:space="preserve">
<style type="text/css">
	.st0{fill:#F9C722;}
</style>
<g>
	<path class="st0" d="M235.1,17.1H17.5C7.9,17.1,0,24.9,0,34.6v147.7c0,9.6,7.9,17.5,17.5,17.5h126.9l-3.8,23.4
		c-0.7,4.4,0.7,8.4,3.9,10.7c3.2,2.3,7.4,2.4,11.3,0.3l27.4-14.4c0.8-0.4,2.9-0.4,3.6,0l27.4,14.4c1.9,1,3.8,1.5,5.7,1.5
		c2.1,0,4-0.6,5.7-1.8c3.2-2.3,4.6-6.3,3.9-10.7l-3.8-23.4h9.5c9.6,0,17.5-7.9,17.5-17.5V34.6C252.6,24.9,244.8,17.1,235.1,17.1z
		 M185,169.7c-16.8,0-30.5-13.7-30.5-30.5s13.7-30.5,30.5-30.5s30.5,13.7,30.5,30.5S201.8,169.7,185,169.7z M193.8,206.4
		c-5.1-2.7-12.5-2.7-17.6,0l-19.4,10.2L163,179c6.5,3.6,14,5.7,22,5.7s15.5-2.1,22-5.7l2.4,14.6c0,0,0,0.1,0,0.1l3.7,22.8
		L193.8,206.4z M237.6,182.2c0,1.4-1.1,2.5-2.5,2.5h-12l-2.7-16.7c0-0.1,0-0.1,0-0.2c6.3-7.8,10.1-17.8,10.1-28.6
		c0-25.1-20.4-45.5-45.5-45.5s-45.5,20.4-45.5,45.5c0,10.8,3.8,20.8,10.1,28.6c0,0.1,0,0.1,0,0.2l-2.7,16.7c-0.1,0-0.2,0-0.2,0H17.5
		c-1.4,0-2.5-1.1-2.5-2.5V34.6c0-1.4,1.1-2.5,2.5-2.5h217.6c1.4,0,2.5,1.1,2.5,2.5V182.2z"/>
	<path class="st0" d="M208.6,60.2h-170c-4.1,0-7.5,3.4-7.5,7.5s3.4,7.5,7.5,7.5h170c4.1,0,7.5-3.4,7.5-7.5S212.8,60.2,208.6,60.2z"
		/>
	<path class="st0" d="M110.6,100.9h-72c-4.1,0-7.5,3.4-7.5,7.5s3.4,7.5,7.5,7.5h72c4.1,0,7.5-3.4,7.5-7.5
		C118.1,104.3,114.8,100.9,110.6,100.9z"/>
</g>
</svg>
