<?xml version="1.0" encoding="utf-8"?>
<!-- Generator: Adobe Illustrator 25.2.1, SVG Export Plug-In . SVG Version: 6.00 Build 0)  -->
<svg version="1.1" id="Layer_1" xmlns="http://www.w3.org/2000/svg" xmlns:xlink="http://www.w3.org/1999/xlink" x="0px" y="0px"
	 viewBox="0 0 512 512" style="enable-background:new 0 0 512 512;" xml:space="preserve">
<style type="text/css">
	.st0{fill:#F9C722;}
</style>
<path class="st0" d="M437,75C337-25,175.1-25,75,75C-25,175-25,336.9,75,437c100,100,261.9,100,362,0C537,337,537,175.1,437,75z
	 M256,469.9c-117.9,0-213.9-96-213.9-213.9S138.1,42.1,256,42.1s213.9,96,213.9,213.9S373.9,469.9,256,469.9L256,469.9z"/>
<path class="st0" d="M298.7,160.2c-11.6,0-21,9.4-21,21v149.5c0,11.6,9.4,21,21,21s21-9.4,21-21V181.3
	C319.7,169.6,310.3,160.2,298.7,160.2L298.7,160.2z"/>
<path class="st0" d="M213.3,160.2c-11.6,0-21,9.4-21,21v149.5c0,11.6,9.4,21,21,21c11.6,0,21-9.4,21-21V181.3
	C234.3,169.6,224.9,160.2,213.3,160.2L213.3,160.2z"/>
</svg>
